<?xml version="1.0" standalone="no"?>
<!DOCTYPE svg PUBLIC "-//W3C//DTD SVG 20010904//EN"
 "http://www.w3.org/TR/2001/REC-SVG-20010904/DTD/svg10.dtd">
<svg version="1.0" xmlns="http://www.w3.org/2000/svg"
 width="2775.000000pt" height="2775.000000pt" viewBox="0 0 2775.000000 2775.000000"
 preserveAspectRatio="xMidYMid meet">
<metadata>
Created by potrace 1.14, written by Peter Selinger 2001-2017
</metadata>
<g transform="translate(0.000000,2775.000000) scale(0.100000,-0.100000)"
fill="#000000" stroke="none">
<path d="M887 26434 c-1 -1 -26 -5 -55 -9 -302 -38 -610 -265 -739 -545 -30
-64 -49 -116 -58 -159 -3 -11 -7 -29 -9 -38 -2 -10 -7 -38 -11 -63 -9 -51 -10
-6612 -1 -6680 11 -87 46 -201 87 -285 68 -141 155 -241 300 -350 37 -28 97
-77 135 -110 125 -111 170 -150 229 -201 194 -166 368 -318 435 -378 25 -23
59 -52 76 -66 37 -32 165 -142 180 -155 26 -24 149 -130 269 -235 72 -62 144
-124 160 -138 17 -15 100 -87 185 -161 85 -74 157 -137 160 -140 3 -4 52 -47
110 -96 58 -50 112 -97 121 -105 8 -8 29 -26 45 -39 49 -41 859 -745 864 -751
3 -3 70 -62 150 -130 132 -114 194 -167 224 -195 6 -6 45 -39 86 -74 41 -35
77 -67 80 -70 3 -3 37 -33 75 -65 39 -33 75 -64 80 -70 6 -6 57 -51 115 -101
58 -49 107 -92 110 -95 3 -3 34 -30 70 -60 36 -30 67 -58 70 -61 3 -3 109 -95
235 -204 127 -110 286 -249 355 -309 126 -110 216 -188 300 -261 25 -22 73
-63 106 -92 80 -70 91 -80 165 -143 197 -171 318 -276 349 -304 43 -38 175
-153 210 -182 42 -36 283 -245 315 -273 28 -25 311 -271 382 -332 l32 -27 -66
-69 c-56 -59 -316 -328 -548 -568 -38 -40 -167 -172 -285 -295 -118 -122 -249
-258 -290 -300 -41 -43 -129 -134 -195 -202 -142 -147 -612 -635 -670 -694
-40 -41 -405 -419 -540 -559 -217 -225 -236 -248 -294 -356 -38 -70 -83 -193
-95 -255 -3 -16 -12 -54 -20 -84 -9 -30 -19 -75 -23 -100 -5 -25 -8 -1609 -8
-3520 l0 -3475 23 -85 c30 -113 88 -232 159 -326 32 -43 72 -96 89 -119 121
-159 299 -280 500 -337 66 -18 105 -22 229 -22 162 0 249 16 363 69 29 14 55
25 58 25 3 0 38 21 77 46 75 48 147 119 537 523 124 128 252 261 285 295 215
223 514 533 575 596 40 41 169 176 289 298 119 123 239 248 266 277 28 29 147
153 266 276 120 123 249 258 289 299 40 41 172 179 295 305 122 127 257 266
300 310 42 44 165 171 273 283 109 112 226 234 261 270 35 37 159 166 276 287
117 121 250 258 295 305 133 138 489 507 565 585 270 280 501 518 563 583 113
117 480 498 542 562 76 78 493 509 582 602 200 209 501 519 653 672 132 134
180 189 216 251 26 44 50 91 54 105 4 14 11 30 16 35 4 6 13 31 19 55 40 160
39 34 37 3525 -3 3039 -4 3345 -19 3395 -18 61 -43 135 -57 165 -5 11 -17 43
-27 70 -24 67 -102 198 -156 260 -23 28 -103 103 -178 168 -74 64 -146 127
-160 139 -14 13 -126 111 -250 218 -272 235 -280 242 -294 255 -6 6 -197 172
-425 370 -487 423 -800 695 -891 775 -36 31 -117 101 -180 156 -164 141 -171
147 -194 169 -12 11 -51 45 -86 75 -36 30 -67 57 -70 60 -3 3 -72 64 -155 135
-82 71 -186 161 -230 200 -44 38 -107 93 -139 120 -90 78 -119 103 -141 124
-11 10 -175 152 -365 317 -190 164 -347 301 -350 304 -3 3 -41 36 -85 74 -44
38 -107 92 -140 121 -33 29 -134 117 -225 196 -91 79 -232 202 -315 274 -82
71 -168 145 -190 164 -22 19 -63 55 -91 80 -28 25 -64 57 -80 70 -32 27 -166
143 -174 151 -3 3 -39 34 -80 70 -41 36 -88 77 -105 91 -16 14 -73 63 -125
108 -52 45 -104 90 -115 100 -11 10 -78 68 -150 130 -71 62 -157 137 -190 166
-33 29 -100 87 -150 130 -49 43 -106 92 -125 109 -19 17 -102 90 -185 160 -82
71 -152 132 -155 135 -3 3 -36 33 -75 66 -102 88 -127 109 -139 120 -6 6 -60
53 -121 105 -60 51 -117 101 -126 109 -8 9 -42 39 -74 66 -33 28 -80 68 -105
91 -25 22 -92 80 -150 130 -57 49 -119 103 -136 119 -18 17 -43 39 -57 50 -64
54 -164 140 -278 240 -69 61 -152 133 -184 160 -32 28 -63 55 -69 60 -6 6 -45
39 -86 75 -41 35 -82 71 -91 80 -8 8 -37 33 -64 55 -26 22 -60 51 -75 65 -15
14 -40 36 -56 49 -39 34 -474 410 -499 433 -43 38 -74 65 -135 118 -35 30 -68
60 -74 65 -6 6 -42 37 -81 70 -38 33 -75 65 -81 70 -6 6 -40 35 -75 65 -35 30
-102 89 -150 130 -47 41 -115 100 -150 130 -54 47 -114 100 -284 249 -16 14
-95 82 -175 151 -80 68 -147 127 -150 130 -3 3 -57 50 -120 105 -63 54 -117
102 -120 105 -3 3 -23 20 -45 39 -22 19 -65 56 -95 82 -30 26 -68 60 -85 74
-125 108 -316 192 -480 211 -41 5 -175 11 -178 8z m4787 -22049 c-4 -8 -8 -15
-10 -15 -2 0 -4 7 -4 15 0 8 4 15 10 15 5 0 7 -7 4 -15z"/>
<path d="M26747 26434 c-1 -1 -29 -4 -62 -8 -124 -13 -288 -76 -399 -153 -42
-30 -219 -179 -371 -314 -16 -15 -104 -91 -195 -170 -91 -78 -167 -145 -170
-148 -3 -3 -34 -31 -70 -61 -36 -30 -67 -57 -70 -60 -3 -3 -41 -37 -86 -75
-44 -39 -109 -95 -143 -125 -80 -70 -105 -91 -128 -110 -26 -23 -256 -223
-269 -235 -6 -5 -35 -30 -64 -55 -29 -25 -65 -56 -80 -70 -35 -31 -68 -60
-150 -130 -36 -30 -72 -61 -80 -70 -8 -9 -55 -50 -105 -92 -49 -42 -103 -89
-120 -103 -16 -15 -52 -46 -79 -69 -26 -22 -56 -48 -66 -56 -22 -19 -139 -122
-154 -135 -6 -6 -76 -66 -156 -135 -80 -69 -147 -127 -150 -131 -3 -3 -57 -50
-120 -105 -63 -54 -128 -111 -145 -125 -16 -15 -73 -64 -125 -109 -52 -45
-124 -108 -160 -140 -36 -31 -81 -70 -100 -86 -19 -16 -39 -34 -45 -40 -5 -5
-39 -35 -75 -65 -36 -30 -69 -59 -75 -65 -5 -6 -57 -51 -115 -100 -58 -49
-109 -94 -115 -100 -8 -9 -216 -189 -339 -294 -16 -14 -37 -32 -46 -40 -9 -8
-61 -54 -115 -101 -55 -48 -111 -96 -125 -108 -14 -12 -36 -32 -50 -43 -37
-31 -244 -212 -250 -218 -3 -3 -52 -45 -110 -95 -58 -49 -112 -97 -120 -105
-8 -8 -62 -55 -120 -105 -58 -49 -107 -92 -110 -95 -3 -3 -39 -34 -80 -70 -41
-36 -80 -69 -86 -75 -6 -5 -35 -30 -65 -55 -29 -25 -60 -52 -69 -60 -9 -8 -63
-55 -120 -104 -58 -50 -109 -95 -115 -100 -5 -6 -41 -38 -80 -71 -38 -33 -75
-64 -81 -70 -6 -5 -38 -33 -70 -61 -204 -176 -350 -303 -463 -402 -14 -13 -50
-45 -80 -70 -30 -26 -129 -112 -220 -191 -91 -79 -192 -167 -225 -195 -32 -28
-64 -56 -70 -61 -11 -11 -288 -251 -340 -295 -16 -14 -47 -41 -70 -61 -35 -32
-177 -154 -430 -373 -32 -28 -64 -56 -71 -63 -13 -13 -317 -276 -349 -303 -10
-8 -26 -22 -35 -30 -9 -9 -68 -61 -131 -115 -63 -55 -117 -102 -120 -105 -3
-3 -34 -30 -70 -60 -36 -30 -70 -59 -76 -65 -35 -32 -164 -144 -339 -296 -110
-95 -202 -175 -205 -178 -4 -5 -89 -78 -174 -151 -16 -14 -37 -32 -46 -40 -9
-8 -81 -71 -160 -140 -80 -68 -147 -127 -150 -130 -4 -4 -368 -320 -484 -420
-16 -14 -37 -32 -46 -40 -8 -8 -31 -28 -50 -44 -19 -16 -64 -55 -100 -86 -36
-31 -103 -90 -150 -131 -47 -41 -98 -86 -115 -100 -41 -36 -263 -229 -299
-260 -50 -43 -146 -169 -181 -239 -55 -109 -113 -271 -132 -369 -17 -86 -18
-267 -17 -3398 0 -1820 4 -3324 8 -3343 25 -134 58 -227 115 -325 50 -87 84
-126 301 -344 107 -108 291 -296 409 -418 117 -122 249 -260 293 -305 89 -92
472 -490 558 -578 112 -116 487 -505 560 -580 41 -43 170 -176 286 -296 116
-121 242 -251 280 -291 38 -39 161 -166 274 -283 113 -117 236 -244 274 -283
38 -40 159 -166 270 -280 110 -115 234 -243 275 -285 41 -42 180 -186 309
-320 130 -134 256 -265 281 -291 25 -27 143 -149 261 -271 118 -122 250 -259
293 -303 44 -45 173 -179 287 -297 114 -118 236 -244 270 -280 34 -36 162
-168 284 -294 121 -125 250 -259 286 -296 36 -37 160 -166 276 -286 117 -121
243 -251 280 -291 192 -200 508 -525 572 -589 174 -174 371 -261 612 -270 212
-8 387 42 560 159 62 43 155 132 198 192 20 27 47 61 60 75 72 76 176 267 183
335 1 6 5 17 10 26 4 9 10 29 13 45 2 16 7 48 11 72 9 56 9 6907 0 6964 -7 45
-42 182 -77 303 -24 83 -84 200 -138 270 -45 58 -87 102 -380 405 -118 122
-250 258 -294 303 -43 45 -172 179 -287 298 -115 119 -235 243 -267 276 -31
34 -157 164 -279 289 -121 126 -253 263 -293 304 -39 41 -170 176 -290 300
-120 124 -246 254 -280 290 -86 90 -289 300 -373 387 l-71 72 50 44 c27 25
155 136 284 248 129 112 240 208 246 214 6 5 35 30 64 55 30 25 66 56 80 70
14 14 39 35 54 48 16 12 50 41 76 64 26 24 71 63 100 87 29 25 58 50 64 55 6
6 43 38 81 71 39 33 75 65 80 71 6 6 60 53 120 105 61 52 124 106 140 120 17
15 73 64 125 109 52 45 108 94 124 108 16 13 115 99 220 190 105 92 193 169
196 172 3 3 37 32 75 65 39 33 75 64 81 70 14 13 238 207 409 355 124 108 245
213 269 235 6 6 40 35 76 65 36 30 74 64 86 75 11 11 45 40 74 65 30 25 95 81
145 125 50 44 120 105 155 135 72 62 214 186 310 270 36 32 139 121 230 200
153 132 222 192 340 295 25 22 75 65 109 95 35 30 71 62 81 70 9 8 43 38 76
66 32 29 149 130 259 226 110 96 322 279 470 408 149 129 272 237 275 240 3 3
52 45 110 95 107 92 281 244 290 254 3 3 26 23 52 44 26 21 53 43 60 50 44 43
323 280 370 315 116 86 224 216 278 337 26 56 71 185 65 185 -2 0 1 15 7 33 8
23 12 972 13 3362 1 2738 -1 3344 -12 3407 -24 144 -92 294 -182 408 -128 161
-353 310 -522 346 -90 19 -136 25 -203 27 -42 2 -78 2 -79 1z m-4647 -22044
c0 -5 -4 -10 -10 -10 -5 0 -10 5 -10 10 0 6 5 10 10 10 6 0 10 -4 10 -10z"/>
</g>
</svg>
